<?xml version="1.0" standalone="no"?><!-- Generator: Adobe Fireworks CS6, Export SVG Extension by Aaron Beall (http://fireworks.abeall.com) . Version: 0.6.1  --><!DOCTYPE svg PUBLIC "-//W3C//DTD SVG 1.1//EN" "http://www.w3.org/Graphics/SVG/1.1/DTD/svg11.dtd"><svg id="Untitled-%u30DA%u30FC%u30B8%201" viewBox="0 0 190 20" style="background-color:#ffffff00; cursor: pointer;" version="1.1"	xmlns="http://www.w3.org/2000/svg" xmlns:xlink="http://www.w3.org/1999/xlink" xml:space="preserve"	x="0px" y="0px" width="190px" height="20px">	<g>		<path d="M 10.6856 12.5446 C 9.482 9.8831 8.3444 7.368 6.9587 3.9845 L 6.586 4.0048 C 4.2073 9.219 1.0017 15.555 0.5839 16.1985 C 0.4498 16.4043 0.2842 16.6362 0 16.8204 L 0 17.1036 C 0.5834 17.0955 1.1905 17.0901 1.7541 17.0901 C 2.1251 17.0901 2.3976 17.0923 2.6523 17.0967 L 2.6523 16.8038 C 2.3596 16.6077 2.2114 16.3235 2.2114 15.9576 C 2.2114 15.4272 2.512 14.81 3.2386 13.3187 L 4.1854 11.3497 C 4.8048 10.062 5.4858 8.5595 6.2095 6.883 L 6.3648 6.5234 L 6.5095 6.8874 C 7.2868 8.8424 7.8653 10.2625 8.3305 11.3559 L 8.8294 12.5101 C 9.1069 13.1502 9.3417 13.6821 9.5363 14.1223 C 10.0661 15.3219 10.2854 15.8185 10.2854 16.0603 C 10.2854 16.3658 10.2363 16.6744 9.8995 16.8824 L 9.8995 17.1017 C 10.1921 17.0945 10.4812 17.0901 10.9825 17.0901 C 11.6483 17.0901 12.3305 17.0955 12.9961 17.1064 L 12.9961 16.7743 C 12.4291 16.3749 12.0814 15.6578 11.6251 14.6264 C 11.302 13.9071 10.9906 13.2185 10.6856 12.5446 Z" fill="#ffffff"/>		<path d="M 23.5296 10.1899 C 22.0129 9.4849 20.5805 8.8192 20.5805 7.2509 C 20.5805 5.6349 21.6757 4.7451 23.6643 4.7451 C 24.5125 4.7451 25.1213 4.9933 25.4754 5.4833 L 25.8757 5.4833 L 25.953 4.231 C 25.5424 4.0885 24.9924 4.0105 24.3874 4.0105 C 21.1472 4.0105 19.1344 5.3369 19.1344 7.472 C 19.1344 9.6751 20.8024 10.4493 22.4154 11.198 C 23.8871 11.881 25.4088 12.5872 25.4088 14.3921 C 25.4088 16.5293 22.6787 16.6954 21.8419 16.6954 C 20.8057 16.6954 20.1138 16.555 19.6915 15.8548 L 19.2886 15.8548 L 19.2275 17.0582 C 19.945 17.3379 20.8348 17.4974 21.6895 17.4974 C 23.6695 17.4974 26.9911 17.0391 26.9911 13.9685 C 26.9911 11.7989 25.2314 10.9809 23.5296 10.1899 Z" fill="#ffffff"/>		<path d="M 37.7792 4.5875 L 37.7792 4.3582 L 37.2119 4.3629 C 36.4707 4.3698 35.7947 4.3701 35.0322 4.3629 L 34.4425 4.3582 L 34.4425 4.6051 C 35.1813 5.0321 35.2402 5.8645 35.2402 6.9814 L 35.2402 14.4785 C 35.2402 15.5982 35.1813 16.4332 34.4425 16.8699 L 34.4425 17.0851 L 34.7157 17.082 C 35.1802 17.0764 35.6474 17.0707 36.0768 17.0707 C 36.6018 17.0707 37.1973 17.0789 37.7792 17.0876 L 37.7792 16.8997 C 36.9893 16.4726 36.9264 15.6217 36.9264 14.4785 L 36.9264 6.9814 C 36.9264 5.846 36.9894 5.0017 37.7792 4.5875 Z" fill="#ffffff"/>		<path d="M 90.1635 14.0183 L 90.1637 14.0186 C 90.1643 14.0192 90.165 14.0199 90.1656 14.0205 L 90.1635 14.0183 Z" fill="#ffffff"/>		<path d="M 106.0135 3.9265 C 101.9616 3.9265 98.9058 6.8473 98.9058 10.7206 C 98.9058 14.6035 101.9616 17.5316 106.0135 17.5316 C 110.0753 17.5316 113.138 14.6035 113.138 10.7206 C 113.138 6.8473 110.0753 3.9265 106.0135 3.9265 ZM 106.0306 16.7302 C 103.087 16.7302 100.7814 14.0832 100.7814 10.7037 C 100.7814 7.3339 103.087 4.6941 106.0306 4.6941 C 108.9644 4.6941 111.2624 7.3339 111.2624 10.7037 C 111.2624 14.0832 108.9644 16.7302 106.0306 16.7302 Z" fill="#ffffff"/>		<path d="M 132.5757 4.3733 L 132.5757 4.5073 C 133.0836 4.6903 133.3411 5.0299 133.3411 5.5183 C 133.3411 6.3827 132.6365 8.4498 131.0928 12.9794 L 130.3828 15.065 L 130.2381 14.575 C 129.5279 12.1711 128.9497 10.3556 128.5272 9.03 C 127.842 6.879 127.4981 5.7991 127.4981 5.0757 C 127.4981 4.7495 127.5165 4.5202 127.734 4.3419 C 127.3201 4.3504 126.5871 4.3507 124.9322 4.3507 C 125.1143 4.4795 125.2476 4.6424 125.2476 5.127 C 125.2476 6.0406 124.443 8.7797 122.4699 14.581 L 122.3119 15.0456 L 122.1618 14.5785 C 120.0101 7.8887 119.4208 5.919 119.4208 5.4156 C 119.4208 5.1079 119.4705 4.7978 119.81 4.5922 L 119.81 4.3742 C 119.5164 4.3814 119.2251 4.3858 118.7235 4.3858 C 118.0579 4.3858 117.3784 4.3805 116.7131 4.3695 L 116.7131 4.659 C 117.3388 5.0365 117.6839 5.7317 118.0883 6.8567 C 118.8014 8.8471 119.3917 10.6056 120.0161 12.4675 C 120.5329 14.0073 121.0668 15.5989 121.7258 17.4902 L 122.0886 17.4686 C 123.1466 15.1408 124.1061 12.2974 124.8787 10.0072 C 125.3113 8.7252 125.6849 7.6177 126.0139 6.7696 L 126.1716 6.3639 L 126.3182 6.7737 C 126.937 8.504 127.4652 10.2018 128.0241 11.9988 C 128.5614 13.7273 129.1172 15.513 129.8034 17.4902 L 130.166 17.4686 C 131.6105 14.288 132.9389 10.6379 133.8208 8.2145 C 134.405 6.6089 134.7911 5.5481 134.9649 5.2784 C 135.1093 5.0609 135.2724 4.8366 135.5526 4.653 L 135.5526 4.3698 C 134.969 4.3805 134.362 4.3858 133.7983 4.3858 C 133.2664 4.3858 132.9389 4.3811 132.5757 4.3733 Z" fill="#ffffff"/>		<path d="M 55.5497 12.5512 C 54.345 9.8878 53.2066 7.3708 51.8196 3.9845 L 51.4469 4.0048 C 49.0693 9.2171 45.8633 15.5537 45.445 16.1985 C 45.3109 16.4043 45.1453 16.6362 44.8609 16.8204 L 44.8609 17.1036 C 45.4445 17.0955 46.0515 17.0901 46.6152 17.0901 C 46.9887 17.0901 47.2594 17.0923 47.5134 17.0967 L 47.5134 16.8038 C 47.2206 16.6077 47.0724 16.3235 47.0724 15.9576 C 47.0724 15.4272 47.3731 14.81 48.0997 13.3187 L 49.0465 11.3497 C 49.6364 10.1306 50.3172 8.6281 51.0706 6.883 L 51.2259 6.5234 L 51.3706 6.8874 C 52.1472 8.8411 52.7257 10.261 53.1914 11.3559 L 53.6903 12.5101 C 53.9677 13.1499 54.2025 13.6812 54.3967 14.1214 C 54.927 15.3216 55.1464 15.8185 55.1464 16.0603 C 55.1464 16.3658 55.0973 16.6744 54.7606 16.8824 L 54.7606 17.1017 C 55.053 17.0945 55.3421 17.0901 55.8435 17.0901 C 56.5093 17.0901 57.1916 17.0955 57.8572 17.1064 L 57.8572 16.774 C 57.2888 16.3721 56.9416 15.6559 56.4862 14.6264 C 56.164 13.9093 55.8537 13.2232 55.5497 12.5512 Z" fill="#ffffff"/>		<path d="M 74.4499 14.6264 C 74.1229 13.8986 73.8082 13.2022 73.4997 12.5204 C 72.2991 9.8665 71.1644 7.358 69.7804 3.9845 L 69.4109 4.0048 C 67.0466 9.1873 63.8346 15.5375 63.409 16.1979 C 63.2725 16.4034 63.1054 16.6334 62.8249 16.8191 L 62.8249 17.1036 C 63.4083 17.0955 64.0154 17.0901 64.579 17.0901 C 64.95 17.0901 65.2201 17.0923 65.4741 17.0948 L 65.4741 16.8032 C 65.1835 16.6067 65.0363 16.3229 65.0363 15.9576 C 65.0363 15.4272 65.3369 14.81 66.0635 13.3187 L 67.0103 11.3497 C 67.6297 10.062 68.3107 8.5595 69.0344 6.883 L 69.1897 6.5234 L 69.3344 6.8874 C 70.1117 8.8424 70.6902 10.2625 71.1554 11.3559 L 71.6543 12.5101 C 71.9318 13.1502 72.1666 13.6821 72.361 14.1223 C 72.891 15.3219 73.1103 15.8185 73.1103 16.0603 C 73.1103 16.3674 73.0607 16.6778 72.7212 16.8862 L 72.7212 17.1017 C 73.0137 17.0945 73.3034 17.0901 73.8074 17.0901 C 74.4731 17.0901 75.1527 17.0955 75.8178 17.1039 L 75.8178 16.7737 C 75.2482 16.3686 74.9027 15.6537 74.4499 14.6264 Z" fill="#ffffff"/>		<path d="M 149.0077 12.3986 C 147.8244 9.781 146.7059 7.3066 145.3452 3.9845 L 144.9757 4.0048 C 142.5907 9.2262 139.3858 15.5588 138.9706 16.1985 C 138.8367 16.4043 138.6707 16.6362 138.3867 16.8204 L 138.3867 17.1036 C 138.97 17.0955 139.5773 17.0901 140.1407 17.0901 C 140.5118 17.0901 140.7841 17.0923 141.039 17.0967 L 141.039 16.8038 C 140.7461 16.6077 140.5979 16.3235 140.5979 15.9576 C 140.5979 15.4253 140.9013 14.8043 141.6343 13.3043 L 142.572 11.35 C 143.1521 10.1507 143.8342 8.6481 144.5992 6.8827 L 144.755 6.5234 L 144.8994 6.8874 C 145.5941 8.6425 146.2056 10.146 146.717 11.3566 L 147.2161 12.5101 C 147.4931 13.1499 147.7281 13.6812 147.9225 14.1214 C 148.4526 15.3216 148.6721 15.8185 148.6721 16.0603 C 148.6721 16.3658 148.623 16.6741 148.2861 16.8824 L 148.2861 17.1017 C 148.5786 17.0945 148.8678 17.0901 149.369 17.0901 C 150.035 17.0901 150.717 17.0955 151.3826 17.1064 L 151.3826 16.7743 C 150.8158 16.3749 150.4681 15.6578 150.0118 14.6264 C 149.6657 13.8548 149.3333 13.1191 149.0077 12.3986 Z" fill="#ffffff"/>		<path d="M 95.4581 18.7359 C 95.0722 18.5112 93.4088 18.0685 87.6564 11.4888 L 87.6857 11.4822 L 87.7408 11.4694 C 88.8562 11.2193 89.7641 10.677 90.3933 9.9649 C 91.0223 9.2559 91.3757 8.3768 91.3757 7.4561 C 91.3725 6.3943 90.9509 5.6145 90.1176 5.0694 C 89.281 4.524 88.0131 4.232 86.3465 4.232 C 85.432 4.232 84.1285 4.3698 83.3212 4.3698 C 82.8023 4.3698 82.2123 4.3635 81.6383 4.357 L 81.6383 4.6136 C 81.9722 4.8062 82.1863 5.0948 82.2933 5.4607 C 82.4132 5.8648 82.436 6.3589 82.436 6.9814 L 82.436 14.3407 C 82.436 14.9632 82.4132 15.4829 82.2933 15.9159 C 82.1863 16.3169 81.9754 16.6409 81.6383 16.8655 L 81.6383 17.119 C 82.1928 17.1127 82.7569 17.1061 83.2724 17.1061 C 83.7978 17.1061 84.3945 17.1127 84.9748 17.1221 L 84.9748 16.8912 C 84.6182 16.6763 84.3945 16.3555 84.2777 15.9513 C 84.148 15.5149 84.122 14.9823 84.122 14.3407 L 84.122 11.6298 L 85.6201 11.6298 L 85.6656 11.6749 C 85.6882 11.694 85.7108 11.7165 85.7337 11.7391 C 85.7337 11.7422 85.7368 11.7422 85.7401 11.7454 C 86.5638 12.6436 88.2498 14.7577 89.5761 16.0795 C 91.5605 18.0717 94.2324 20 97.0597 20 C 98.4511 20 99.9166 20 99.9166 20 L 99.9166 19.6407 C 99.9166 19.6407 97.2123 19.7497 95.4581 18.7359 ZM 84.122 10.8631 L 84.122 7.27 C 84.122 6.7537 84.1415 6.3526 84.2096 6.035 C 84.2777 5.7141 84.401 5.467 84.6117 5.2972 C 84.7511 5.1847 84.9197 5.1111 85.1176 5.0628 C 85.3834 5.002 85.698 4.9826 86.0904 4.9826 C 87.4814 4.9826 88.3732 5.4284 88.9017 6.0093 C 89.4333 6.5898 89.6019 7.2859 89.6019 7.78 C 89.6053 8.8292 89.1966 9.6215 88.519 10.1285 C 87.8445 10.6354 86.9203 10.8631 85.8828 10.8631 L 84.122 10.8631 Z" fill="#ffffff"/>		<path d="M 169.5607 4.3698 C 169.0765 4.3698 168.6234 4.3648 168.1665 4.3592 L 168.1665 4.5879 C 168.7627 4.8836 169.0192 5.4851 169.0192 6.5707 L 169.0192 14.2583 L 168.8026 14.0274 C 167.5015 12.5687 160.952 5.2336 159.6376 3.9196 C 157.6528 1.9283 155.1537 0 152.3257 0 C 150.9352 0 149.4707 0 149.4707 0 L 149.4707 0.3593 C 149.4707 0.3593 152.1737 0.2506 153.927 1.2651 C 154.2408 1.4468 155.4112 1.7817 158.9641 5.4789 L 158.9641 14.9021 C 158.9641 16.0296 158.7152 16.6199 158.111 16.9009 L 158.111 17.1171 C 158.561 17.1114 159.0056 17.1061 159.4891 17.1061 C 159.8482 17.1061 160.1898 17.1089 160.5287 17.1118 L 160.8836 17.1146 L 160.8836 16.8874 C 160.2874 16.5886 160.0309 15.9864 160.0309 14.9021 L 160.0309 6.6816 L 160.3162 7.0118 C 161.7307 8.6491 163.1839 10.1808 164.5892 11.662 C 166.2833 13.4478 168.035 15.2943 169.7713 17.3759 L 170.086 17.3652 L 170.086 6.5707 C 170.086 5.4472 170.334 4.857 170.9356 4.5728 L 170.9356 4.3592 C 170.4857 4.3648 170.0414 4.3698 169.5607 4.3698 Z" fill="#ffffff"/>		<path d="M 187.6894 12.5433 C 186.4857 9.8819 185.3483 7.3668 183.9626 3.9832 L 183.5896 4.0036 C 181.2109 9.2177 178.0057 15.5537 177.5877 16.1972 C 177.4534 16.4031 177.2881 16.6349 177.0037 16.8191 L 177.0037 17.1024 C 177.587 17.0942 178.1944 17.0889 178.758 17.0889 C 179.1288 17.0889 179.4015 17.0911 179.6561 17.0955 L 179.6561 16.8025 C 179.3635 16.6064 179.2153 16.3223 179.2153 15.9563 C 179.2153 15.4259 179.5158 14.8087 180.2425 13.3175 L 181.1893 11.3484 C 181.8087 10.0608 182.4895 8.5582 183.2134 6.8818 L 183.3686 6.5221 L 183.5133 6.8862 C 184.2907 8.8411 184.8689 10.2613 185.3344 11.3547 L 185.8331 12.5089 C 186.1108 13.1489 186.3455 13.6809 186.5402 14.1211 C 187.0697 15.3207 187.2891 15.8172 187.2891 16.0591 C 187.2891 16.3645 187.24 16.6731 186.9031 16.8812 L 186.9031 17.1005 C 187.1957 17.0933 187.4851 17.0889 187.9861 17.0889 C 188.652 17.0889 189.3344 17.0942 190 17.1052 L 190 16.7731 C 189.4329 16.3736 189.0852 15.6565 188.6289 14.6252 C 188.3059 13.9058 187.9943 13.2172 187.6894 12.5433 Z" fill="#ffffff"/>	</g></svg>