<?xml version="1.0" encoding="iso-8859-1"?>
<!-- Generator: Adobe Illustrator 16.0.4, SVG Export Plug-In . SVG Version: 6.00 Build 0)  -->
<!DOCTYPE svg PUBLIC "-//W3C//DTD SVG 1.1//EN" "http://www.w3.org/Graphics/SVG/1.1/DTD/svg11.dtd">
<svg version="1.1" id="&#x30EC;&#x30A4;&#x30E4;&#x30FC;_1"
	 xmlns="http://www.w3.org/2000/svg" xmlns:xlink="http://www.w3.org/1999/xlink" x="0px" y="0px" width="36px" height="36px"
	 viewBox="0 0 36 36" style="enable-background:new 0 0 36 36; cursor: pointer;" xml:space="preserve">
<g>
	<path style="fill:#FFFFFF;" d="M18,3c8.271,0,15,6.729,15,15c0,8.271-6.729,15-15,15C9.729,33,3,26.271,3,18C3,9.729,9.729,3,18,3
		 M18,0C8.059,0,0,8.059,0,18c0,9.941,8.059,18,18,18c9.941,0,18-8.059,18-18C36,8.059,27.941,0,18,0L18,0z"/>
</g>
<line style="fill:none;stroke:#FFFFFF;stroke-miterlimit:10;" x1="11" y1="11" x2="25" y2="25"/>
<line style="fill:none;stroke:#FFFFFF;stroke-miterlimit:10;" x1="25" y1="11" x2="11" y2="25"/>
</svg>
